<svg width="128" height="128" viewBox="0 0 128 128" fill="none" xmlns="http://www.w3.org/2000/svg">
<rect width="128" height="128" fill="black"/>
<g clip-path="url(#clip0_2376_2)">
<path d="M55.8285 77.6191C55.8285 81.874 55.8285 88.5145 55.8285 88.5145H72.1715V77.6191H88.5145V88.5145H104.857V104.857H88.5145V93.9621H72.1715V104.857H55.8285V93.9621H39.4855V104.857H23.1426V88.5145H39.4855V77.6191C39.4855 77.6191 49.4462 77.6191 55.8285 77.6191ZM55.8285 50.3809V61.2762H72.1715V50.3809H88.5145V61.2762H104.857V77.6191C98.4751 77.6191 94.8968 77.6191 88.5145 77.6191V66.7238H72.1715V77.6191H55.8285C55.8285 73.3643 55.8285 66.7238 55.8285 66.7238H39.4855V77.6191H23.1426V61.2762H39.4855V50.3809H55.8285ZM55.8285 23.1426V34.0379H72.1715V23.1426H88.5145V34.0379H104.857V50.3809H88.5145V39.4855H72.1715V50.3809H55.8285V39.4855H39.4855V50.3809H23.1426V34.0379H39.4855V23.1426H55.8285Z" fill="white"/>
</g>
<defs>
<clipPath id="clip0_2376_2">
<rect width="81.7148" height="81.7148" fill="white" transform="translate(23.1426 23.1426)"/>
</clipPath>
</defs>
</svg>
