<svg width="16" height="15" viewBox="0 0 16 15" fill="none" xmlns="http://www.w3.org/2000/svg">
<g clip-path="url(#clip0_2339_128)">
<path d="M14.818 0L8.30859 4.81652L9.51908 1.97801L14.818 0Z" fill="#E17726"/>
<path d="M0.366453 0.00390625L5.65123 1.97658L6.80062 4.8523L0.366453 0.00390625ZM12.1986 10.2416L15.0757 10.2964L14.0702 13.7122L10.5595 12.7456L12.1986 10.2416ZM2.97077 10.2416L4.60377 12.7456L1.09901 13.7122L0.0996094 10.2964L2.97077 10.2416Z" fill="#E27625"/>
<path d="M6.64484 4.1244L6.76241 7.9219L3.24414 7.76184L4.24491 6.25204L4.25759 6.23752L6.64484 4.1244ZM8.48916 4.08203L10.9129 6.23764L10.9254 6.2521L11.9262 7.7619L8.40868 7.9219L8.48916 4.08203ZM4.70731 10.2572L6.62837 11.7541L4.39679 12.8315L4.70731 10.2572ZM10.4635 10.257L10.7675 12.8315L8.5422 11.7539L10.4635 10.257Z" fill="#E27625"/>
<path d="M8.591 11.6133L10.8492 12.7067L8.74863 13.705L8.77044 13.0452L8.591 11.6133ZM6.57815 11.6138L6.40576 13.0344L6.41993 13.7042L4.31445 12.7067L6.57815 11.6138Z" fill="#D5BFB2"/>
<path d="M5.92482 8.41406L6.51492 9.65424L4.50586 9.06568L5.92482 8.41406ZM9.24244 8.41418L10.6681 9.06568L8.65245 9.65406L9.24244 8.41418Z" fill="#233447"/>
<path d="M4.86028 10.243L4.53554 12.9121L2.79492 10.3014L4.86028 10.243ZM10.3091 10.2431L12.3746 10.3014L10.6274 12.9122L10.3091 10.2431ZM11.9765 7.60938L10.4734 9.14128L9.31442 8.61168L8.75958 9.77814L8.39585 7.77228L11.9765 7.60938ZM3.19208 7.60938L6.7734 7.77228L6.4096 9.77814L5.85464 8.61186L4.70188 9.14134L3.19208 7.60938Z" fill="#CC6228"/>
<path d="M3.0918 7.29605L4.79241 9.02173L4.85132 10.7254L3.0918 7.29605ZM12.0812 7.29297L10.3185 10.7284L10.3849 9.02173L12.0812 7.29297ZM6.69125 7.40118L6.75969 7.83199L6.92882 8.90523L6.82008 12.2015L6.30601 9.55352L6.30583 9.52615L6.69125 7.40118ZM8.47915 7.39519L8.86558 9.52615L8.8654 9.55352L8.35003 12.2082L8.32964 11.5442L8.24923 8.88567L8.47915 7.39519Z" fill="#E27525"/>
<path d="M10.5352 8.95312L10.4776 10.4333L8.68363 11.831L8.32097 11.5748L8.72748 9.48089L10.5352 8.95312ZM4.64062 8.95312L6.44204 9.48089L6.84856 11.5748L6.48589 11.831L4.69182 10.4332L4.64062 8.95312Z" fill="#F5841F"/>
<path d="M3.9707 12.3789L6.26592 13.4664L6.25621 13.002L6.44826 12.8334H8.7199L8.91889 13.0014L8.9042 13.4655L11.1849 12.3816L10.0751 13.2987L8.73317 14.2204H6.42984L5.0888 13.2949L3.9707 12.3789Z" fill="#C0AC9D"/>
<path d="M8.42838 11.4648L8.75288 11.6941L8.94304 13.2114L8.66785 12.979H6.50631L6.23633 13.2161L6.42027 11.6942L6.74489 11.4648H8.42838Z" fill="#161616"/>
<path d="M14.3889 0.136719L15.1703 2.48083L14.6823 4.85101L15.0298 5.11904L14.5596 5.4778L14.913 5.75074L14.445 6.17687L14.7323 6.38493L13.9699 7.27536L10.8428 6.36484L10.8157 6.35033L8.56228 4.44941L14.3889 0.136719ZM0.78139 0.136719L6.60809 4.44941L4.35459 6.35033L4.32751 6.36484L1.20041 7.27536L0.437984 6.38493L0.725034 6.17705L0.257362 5.75074L0.610072 5.47809L0.1328 5.11833L0.493391 4.85012L0 2.48095L0.78139 0.136719Z" fill="#763E1A"/>
<path d="M10.6909 6.1611L14.0042 7.12578L15.0807 10.4435H12.2407L10.284 10.4681L11.707 7.69431L10.6909 6.1611ZM4.48146 6.1611L3.46511 7.69431L4.88834 10.4681L2.93249 10.4435H0.0976562L1.16805 7.12584L4.48146 6.1611ZM9.68299 1.96094L8.75623 4.46398L8.55955 7.8453L8.48429 8.90515L8.47831 11.6126H6.69396L6.68815 8.91025L6.61266 7.84441L6.41592 4.46398L5.48928 1.96094H9.68299Z" fill="#F5841F"/>
</g>
<defs>
<clipPath id="clip0_2339_128">
<rect width="15.1703" height="14.2222" rx="2.37036" fill="white"/>
</clipPath>
</defs>
</svg>
