<svg width="15" height="15" viewBox="0 0 15 15" fill="none" xmlns="http://www.w3.org/2000/svg">
<g clip-path="url(#clip0_2339_145)">
<mask id="mask0_2339_145" style="mask-type:luminance" maskUnits="userSpaceOnUse" x="0" y="0" width="15" height="15">
<path d="M0 0H14.2222V14.2222H0V0Z" fill="white"/>
</mask>
<g mask="url(#mask0_2339_145)">
<path d="M14.2222 0H0V14.2222H14.2222V0Z" fill="#AB9FF2"/>
<path d="M3.49091 10.9055C4.70098 10.9055 5.61002 9.89451 6.15283 9.0957C6.08729 9.26248 6.05256 9.43977 6.05031 9.61896C6.05031 10.0853 6.32883 10.4178 6.87875 10.4178C7.63431 10.4178 8.44082 9.78133 8.8586 9.09629C8.82897 9.19506 8.81435 9.28671 8.81475 9.37125C8.81475 9.69718 9.00556 9.90162 9.3943 9.90162C10.6186 9.90162 11.8506 7.8157 11.8506 5.9923C11.8506 4.57127 11.1027 3.32031 9.22541 3.32031C5.92587 3.32031 2.36914 7.19408 2.36914 9.69659C2.36914 10.6791 2.91906 10.9055 3.49091 10.9055ZM8.08882 5.83704C8.08882 5.48327 8.29445 5.23616 8.5949 5.23616C8.88823 5.23616 9.09326 5.48327 9.09326 5.83704C9.09326 6.19023 8.88823 6.44504 8.5949 6.44504C8.29386 6.44504 8.08882 6.19023 8.08882 5.83704ZM9.658 5.83704C9.658 5.48327 9.86363 5.23616 10.1641 5.23616C10.4574 5.23616 10.6624 5.48327 10.6624 5.83704C10.6624 6.19023 10.4574 6.44504 10.1641 6.44504C9.86363 6.44504 9.658 6.19023 9.658 5.83704Z" fill="white"/>
</g>
</g>
<defs>
<clipPath id="clip0_2339_145">
<rect width="14.2222" height="14.2222" rx="2.37036" fill="white"/>
</clipPath>
</defs>
</svg>
